<?xml version="1.0" encoding="UTF-8" standalone="no"?>
<!-- Created with Inkscape (http://www.inkscape.org/) -->

<svg
   xmlns:dc="http://purl.org/dc/elements/1.1/"
   xmlns:cc="http://creativecommons.org/ns#"
   xmlns:rdf="http://www.w3.org/1999/02/22-rdf-syntax-ns#"
   xmlns:svg="http://www.w3.org/2000/svg"
   xmlns="http://www.w3.org/2000/svg"
   xmlns:sodipodi="http://sodipodi.sourceforge.net/DTD/sodipodi-0.dtd"
   xmlns:inkscape="http://www.inkscape.org/namespaces/inkscape"
   width="210mm"
   height="297mm"
   viewBox="0 0 210 297"
   version="1.1"
   id="svg8"
   inkscape:version="0.92.1 r15371"
   sodipodi:docname="polys.svg">
  <defs
     id="defs2" />
  <sodipodi:namedview
     id="base"
     pagecolor="#ffffff"
     bordercolor="#666666"
     borderopacity="1.0"
     inkscape:pageopacity="0.0"
     inkscape:pageshadow="2"
     inkscape:zoom="0.7"
     inkscape:cx="-336.61767"
     inkscape:cy="-244.23008"
     inkscape:document-units="mm"
     inkscape:current-layer="flowRoot203"
     showgrid="false"
     inkscape:window-width="1024"
     inkscape:window-height="679"
     inkscape:window-x="0"
     inkscape:window-y="31"
     inkscape:window-maximized="1" />
  <metadata
     id="metadata5">
    <rdf:RDF>
      <cc:Work
         rdf:about="">
        <dc:format>image/svg+xml</dc:format>
        <dc:type
           rdf:resource="http://purl.org/dc/dcmitype/StillImage" />
        <dc:title></dc:title>
      </cc:Work>
    </rdf:RDF>
  </metadata>
  <g
     inkscape:label="Layer 1"
     inkscape:groupmode="layer"
     id="layer1">
    <path
       sodipodi:type="star"
       id="path10"
       sodipodi:sides="7"
       sodipodi:cx="17.885549"
       sodipodi:cy="55.670552"
       sodipodi:r1="7.9081445"
       sodipodi:r2="24.712952"
       sodipodi:arg1="-1.5059523"
       sodipodi:arg2="-1.0571533"
       inkscape:flatsided="false"
       inkscape:rounded="2.12"
       inkscape:randomized="0"
       d="M 18.397986,47.779027 C 56.307551,50.240689 -3.0589202,15.480329 30.028343,34.146552 63.115606,52.812774 2.6632692,19.977194 24.374891,51.150905 46.086513,82.324618 36.248867,14.237312 42.284598,51.744176 48.320328,89.251038 36.300803,21.514849 25.465189,57.926169 14.629574,94.337491 61.728702,44.194369 36.167871,72.29844 10.607042,100.40251 56.071276,48.772445 20.847864,63.002907 -14.375548,77.23337 54.193748,82.793225 16.284184,80.331565 -21.62538,77.869905 47.087117,81.224455 13.999856,62.558231 -19.087406,43.892007 19.317981,100.96815 -2.3936427,69.794444 -24.105266,38.620734 16.113583,94.433855 10.077854,56.926992 4.0421254,19.420128 -16.636437,85.033065 -5.8008239,48.621743 5.0347886,12.210422 -13.525625,78.453696 12.035206,50.349627 37.596038,22.245557 -26.595095,46.987404 8.6283173,32.756939 43.851728,18.526475 -19.511577,45.317365 18.397986,47.779027 Z"
       inkscape:transform-center-x="-0.49484862"
       inkscape:transform-center-y="-1.8842883"
       style="stroke-width:0.11209551;fill:#afafe9"
       inkscape:export-filename="/home/cwc/html/img/image1.png"
       inkscape:export-xdpi="96"
       inkscape:export-ydpi="96" />
    <path
       sodipodi:type="star"
       id="path10-3"
       sodipodi:sides="7"
       sodipodi:cx="102.31357"
       sodipodi:cy="54.084054"
       sodipodi:r1="7.9081445"
       sodipodi:r2="24.712952"
       sodipodi:arg1="-1.5059523"
       sodipodi:arg2="-1.0571533"
       inkscape:flatsided="false"
       inkscape:rounded="2.12"
       inkscape:randomized="0"
       d="m 102.826,46.192529 c 37.90957,2.461662 -21.456902,-32.298698 11.63036,-13.632475 33.08726,18.666222 -27.365072,-14.169358 -5.65345,17.004353 21.71162,31.173712 11.87398,-36.913593 17.90971,0.59327 6.03573,37.506863 -5.9838,-30.229326 -16.81941,6.181994 -10.835617,36.411322 36.26351,-13.7318 10.70268,14.372271 -25.56083,28.10407 19.9034,-23.525996 -15.32001,-9.295533 -35.22341,14.230463 33.34589,19.790318 -4.56368,17.328658 -37.909561,-2.46166 30.80294,0.89289 -2.284325,-17.773334 C 65.340612,42.305509 103.746,99.381657 82.034376,68.207946 60.322753,37.034235 100.5416,92.847357 94.505873,55.340494 88.470144,17.83363 67.791582,83.446567 78.627195,47.035245 89.462807,10.623924 70.902394,76.867198 96.463225,48.763129 122.02406,20.659059 57.832924,45.400905 93.056336,31.170441 128.27975,16.939976 64.916441,43.730867 102.826,46.192529 Z"
       inkscape:transform-center-x="-0.49484862"
       inkscape:transform-center-y="-1.8842883"
       style="stroke-width:0.11209551;fill:#8787de"
       inkscape:export-filename="/home/cwc/html/img/image2.png"
       inkscape:export-xdpi="96"
       inkscape:export-ydpi="96" />
    <path
       sodipodi:type="star"
       id="path10-3-6"
       sodipodi:sides="7"
       sodipodi:cx="161.27783"
       sodipodi:cy="53.328107"
       sodipodi:r1="7.9081445"
       sodipodi:r2="24.712952"
       sodipodi:arg1="-1.5059523"
       sodipodi:arg2="-1.0571533"
       inkscape:flatsided="false"
       inkscape:rounded="2.12"
       inkscape:randomized="0"
       d="m 161.79027,45.436582 c 37.90956,2.461661 -21.45691,-32.298698 11.63036,-13.632475 33.08726,18.666222 -27.36508,-14.169358 -5.65346,17.004353 21.71163,31.173712 11.87398,-36.913593 17.90971,0.59327 6.03573,37.506863 -5.98379,-30.229326 -16.81941,6.181994 -10.83561,36.411321 36.26351,-13.7318 10.70268,14.372271 -25.56083,28.10407 19.90341,-23.525996 -15.32,-9.295533 -35.22342,14.230463 33.34588,19.790318 -4.56368,17.328658 -37.90957,-2.46166 30.80293,0.89289 -2.28433,-17.773334 -33.08726,-18.666225 5.31812,38.409924 -16.3935,7.236212 -21.71162,-31.17371 18.50723,24.639411 12.4715,-12.867451 -6.03573,-37.506864 -26.71429,28.106073 -15.87868,-8.305249 10.83561,-36.411321 -7.7248,29.831953 17.83603,1.727884 25.56083,-28.10407 -38.6303,-3.362224 -3.40689,-17.592688 35.22341,-14.230465 -28.13989,12.560426 9.76967,15.022088 z"
       inkscape:transform-center-x="-0.49484862"
       inkscape:transform-center-y="-1.8842883"
       style="stroke-width:0.11209551;fill:#5f5fd3"
       inkscape:export-filename="/home/cwc/html/img/image3.png"
       inkscape:export-xdpi="96"
       inkscape:export-ydpi="96" />
    <path
       sodipodi:type="star"
       id="path10-7"
       sodipodi:sides="7"
       sodipodi:cx="25.445064"
       sodipodi:cy="120.68246"
       sodipodi:r1="7.9081445"
       sodipodi:r2="24.712952"
       sodipodi:arg1="-1.5059523"
       sodipodi:arg2="-1.0571533"
       inkscape:flatsided="false"
       inkscape:rounded="2.12"
       inkscape:randomized="0"
       d="M 25.957501,112.79093 C 63.867066,115.25259 4.5005948,80.492235 37.587858,99.158458 70.675121,117.82468 10.222784,84.9891 31.934406,116.16281 c 21.711622,31.17371 11.873976,-36.913592 17.909707,0.59327 6.03573,37.50686 -5.983795,-30.229325 -16.819409,6.182 -10.835615,36.41132 36.263513,-13.73181 10.702682,14.37227 -25.560829,28.10407 19.903405,-23.526 -15.320007,-9.29554 -35.2234123,14.23047 33.345884,19.79032 -4.56368,17.32866 -37.909564,-2.46166 30.802933,0.89289 -2.284328,-17.77333 -33.087262,-18.66623 5.318125,38.40992 -16.3934987,7.23621 C -16.545751,103.63264 23.673098,159.44576 17.637369,121.9389 11.60164,84.432034 -9.0769217,150.04497 1.7586911,113.63365 12.594304,77.222328 -5.9661097,143.4656 19.594721,115.36153 45.155553,87.257463 -19.03558,111.99931 16.187832,97.768845 51.411243,83.53838 -11.952062,110.32927 25.957501,112.79093 Z"
       inkscape:transform-center-x="-0.49484862"
       inkscape:transform-center-y="-1.8842883"
       style="stroke-width:0.11209551;fill:#3737c8"
       inkscape:export-filename="/home/cwc/html/img/image4.png"
       inkscape:export-xdpi="96"
       inkscape:export-ydpi="96" />
    <path
       sodipodi:type="star"
       id="path10-3-5"
       sodipodi:sides="7"
       sodipodi:cx="109.8731"
       sodipodi:cy="119.09596"
       sodipodi:r1="7.9081445"
       sodipodi:r2="24.712952"
       sodipodi:arg1="-1.5059523"
       sodipodi:arg2="-1.0571533"
       inkscape:flatsided="false"
       inkscape:rounded="2.12"
       inkscape:randomized="0"
       d="m 110.38554,111.20444 c 37.90956,2.46166 -21.456909,-32.298699 11.63035,-13.632477 33.08727,18.666227 -27.36507,-14.169358 -5.65345,17.004357 21.71162,31.17371 11.87398,-36.913597 17.90971,0.59327 6.03573,37.50686 -5.9838,-30.22933 -16.81941,6.18199 -10.83561,36.41132 36.26351,-13.7318 10.70268,14.37227 -25.56083,28.10407 19.90341,-23.52599 -15.32001,-9.29553 -35.223408,14.23046 33.34589,19.79032 -4.56368,17.32866 -37.909559,-2.46166 30.80294,0.89289 -2.28432,-17.77334 -33.087266,-18.66622 5.31812,38.40993 -16.393502,7.23622 -21.711623,-31.17372 18.507222,24.63941 12.471492,-12.86746 -6.035724,-37.506861 -26.714286,28.10608 -15.878673,-8.30525 10.835612,-36.411316 -7.724801,29.83196 17.836033,1.72789 25.56083,-28.104072 -38.630304,-3.36223 -3.40689,-17.59269 35.22341,-14.230464 -28.139897,12.56043 9.76967,15.02209 z"
       inkscape:transform-center-x="-0.49484862"
       inkscape:transform-center-y="-1.8842883"
       style="stroke-width:0.11209551;fill:#2c2ca0"
       inkscape:export-filename="/home/cwc/html/img/image5.png"
       inkscape:export-xdpi="96"
       inkscape:export-ydpi="96" />
    <path
       sodipodi:type="star"
       id="path10-3-6-3"
       sodipodi:sides="7"
       sodipodi:cx="168.83736"
       sodipodi:cy="118.34001"
       sodipodi:r1="7.9081445"
       sodipodi:r2="24.712952"
       sodipodi:arg1="-1.5059523"
       sodipodi:arg2="-1.0571533"
       inkscape:flatsided="false"
       inkscape:rounded="2.12"
       inkscape:randomized="0"
       d="m 169.34979,110.44849 c 37.90957,2.46166 -21.4569,-32.2987 11.63036,-13.632478 33.08726,18.666218 -27.36507,-14.169358 -5.65345,17.004358 21.71162,31.17371 11.87397,-36.913598 17.9097,0.59327 6.03574,37.50686 -5.98379,-30.229331 -16.8194,6.18199 -10.83562,36.41132 36.26351,-13.7318 10.70268,14.37227 -25.56083,28.10407 19.9034,-23.526 -15.32001,-9.29553 -35.22341,14.23046 33.34589,19.79032 -4.56368,17.32866 -37.90956,-2.46166 30.80293,0.89289 -2.28433,-17.77334 -33.08726,-18.66622 5.31813,38.40993 -16.3935,7.23621 -21.71162,-31.17371 18.50723,24.63942 12.4715,-12.86745 -6.03573,-37.506862 -26.71429,28.10608 -15.87868,-8.30525 10.83562,-36.411317 -7.7248,29.83196 17.83603,1.72789 25.56084,-28.104072 -38.6303,-3.36223 -3.40689,-17.592691 35.22342,-14.230464 -28.13989,12.560431 9.76967,15.022091 z"
       inkscape:transform-center-x="-0.49484862"
       inkscape:transform-center-y="-1.8842883"
       style="stroke-width:0.11209551;fill:#212178"
       inkscape:export-filename="/home/cwc/html/img/image5.png"
       inkscape:export-xdpi="96"
       inkscape:export-ydpi="96" />
    <path
       sodipodi:type="star"
       id="path10-7-5"
       sodipodi:sides="7"
       sodipodi:cx="36.784349"
       sodipodi:cy="187.20627"
       sodipodi:r1="7.9081445"
       sodipodi:r2="24.712952"
       sodipodi:arg1="-1.5059523"
       sodipodi:arg2="-1.0571533"
       inkscape:flatsided="false"
       inkscape:rounded="2.12"
       inkscape:randomized="0"
       d="m 37.296784,179.31474 c 37.909565,2.46167 -21.456906,-32.29869 11.630357,-13.63247 33.087263,18.66622 -27.365074,-14.16936 -5.653452,17.00435 21.711622,31.17371 11.873976,-36.91359 17.909707,0.59327 6.03573,37.50687 -5.983795,-30.22932 -16.819409,6.182 -10.835615,36.41132 36.263513,-13.7318 10.702682,14.37227 -25.560829,28.10407 19.903405,-23.526 -15.320007,-9.29554 -35.2234123,14.23047 33.345884,19.79032 -4.56368,17.32866 -37.9095639,-2.46166 30.802933,0.89289 -2.284328,-17.77333 -33.08726244,-18.66623 5.318125,38.40992 -16.393499,7.23621 -21.7116228,-31.17371 18.507226,24.63941 12.471497,-12.86745 -6.035729,-37.50687 -26.7142907,28.10607 -15.878678,-8.30525 10.835613,-36.41132 -7.7248007,29.83195 17.83603,1.72788 25.560832,-28.10407 -38.6303005,-3.36222 -3.406889,-17.59268 35.223411,-14.23047 -28.13989438,12.56042 9.769669,15.02208 z"
       inkscape:transform-center-x="-0.49484862"
       inkscape:transform-center-y="-1.8842883"
       style="stroke-width:0.11209551;fill:#000080"
       inkscape:export-filename="/home/cwc/html/img/image7.png"
       inkscape:export-xdpi="96"
       inkscape:export-ydpi="96" />
    <path
       sodipodi:type="star"
       id="path10-3-5-6"
       sodipodi:sides="7"
       sodipodi:cx="121.21239"
       sodipodi:cy="185.61977"
       sodipodi:r1="7.9081445"
       sodipodi:r2="24.712952"
       sodipodi:arg1="-1.5059523"
       sodipodi:arg2="-1.0571533"
       inkscape:flatsided="false"
       inkscape:rounded="2.12"
       inkscape:randomized="0"
       d="m 121.72482,177.72824 c 37.90957,2.46166 -21.4569,-32.2987 11.63036,-13.63247 33.08726,18.66622 -27.36507,-14.16936 -5.65345,17.00435 21.71162,31.17371 11.87397,-36.91359 17.90971,0.59327 6.03573,37.50686 -5.9838,-30.22933 -16.81941,6.18199 -10.83562,36.41133 36.26351,-13.7318 10.70268,14.37228 -25.56083,28.10407 19.9034,-23.526 -15.32001,-9.29554 -35.223411,14.23046 33.34589,19.79032 -4.56368,17.32866 -37.909562,-2.46166 30.80294,0.89289 -2.28433,-17.77333 -33.087259,-18.66623 5.31813,38.40992 -16.3935,7.23621 -21.711618,-31.17371 18.50723,24.63941 12.4715,-12.86745 -6.03573,-37.50687 -26.714289,28.10607 -15.878676,-8.30525 10.835616,-36.41132 -7.724801,29.83195 17.836026,1.72788 25.56084,-28.10407 -38.630297,-3.36222 -3.40689,-17.59269 35.22342,-14.23046 -28.13989,12.56043 9.76967,15.02209 z"
       inkscape:transform-center-x="-0.49484862"
       inkscape:transform-center-y="-1.8842883"
       style="stroke-width:0.11209551;fill:#0000d4"
       inkscape:export-filename="/home/cwc/html/img/image8.png"
       inkscape:export-xdpi="96"
       inkscape:export-ydpi="96" />
    <path
       sodipodi:type="star"
       id="path10-3-6-3-2"
       sodipodi:sides="7"
       sodipodi:cx="180.17664"
       sodipodi:cy="184.86382"
       sodipodi:r1="7.9081445"
       sodipodi:r2="24.712952"
       sodipodi:arg1="-1.5059523"
       sodipodi:arg2="-1.0571533"
       inkscape:flatsided="false"
       inkscape:rounded="2.12"
       inkscape:randomized="0"
       d="m 180.68907,176.97229 c 37.90957,2.46166 -21.4569,-32.2987 11.63036,-13.63247 33.08726,18.66622 -27.36507,-14.16936 -5.65345,17.00435 21.71162,31.17371 11.87397,-36.91359 17.9097,0.59327 6.03573,37.50686 -5.98379,-30.22933 -16.8194,6.18199 -10.83562,36.41132 36.26351,-13.7318 10.70268,14.37227 -25.56083,28.10407 19.9034,-23.52599 -15.32001,-9.29553 -35.22341,14.23046 33.34588,19.79032 -4.56368,17.32866 -37.90956,-2.46166 30.80293,0.89289 -2.28433,-17.77333 -33.08726,-18.66623 5.31813,38.40992 -16.3935,7.23621 -21.71162,-31.17371 18.50723,24.63941 12.4715,-12.86745 -6.03573,-37.50687 -26.71429,28.10607 -15.87868,-8.30525 10.83561,-36.41132 -7.7248,29.83195 17.83603,1.72788 25.56083,-28.10407 -38.6303,-3.36222 -3.40689,-17.59269 35.22341,-14.23046 -28.13989,12.56043 9.76967,15.02209 z"
       inkscape:transform-center-x="-0.49484862"
       inkscape:transform-center-y="-1.8842883"
       style="stroke-width:0.11209551;fill:#5555ff"
       inkscape:export-filename="/home/cwc/html/img/image9.png"
       inkscape:export-xdpi="96"
       inkscape:export-ydpi="96" />
    <ellipse
       id="path103"
       cx="-186.72023"
       cy="244.83929"
       rx="26.458332"
       ry="29.482143"
       style="stroke-width:0.26458332" />
    <path
       sodipodi:type="star"
       id="path105"
       sodipodi:sides="7"
       sodipodi:cx="-213.93451"
       sodipodi:cy="105.74405"
       sodipodi:r1="32.611263"
       sodipodi:r2="10.435604"
       sodipodi:arg1="0.76900619"
       sodipodi:arg2="1.2178051"
       inkscape:flatsided="true"
       inkscape:rounded="2.12"
       inkscape:randomized="0"
       d="m -190.49999,128.42262 c -41.72102,43.11172 33.16458,15.52222 -26.55415,9.78314 -59.71874,-5.73909 8.54201,35.60705 -24.20501,-14.6612 -32.74702,-50.268244 -22.51286,28.87905 -3.629,-28.065339 18.88387,-56.944391 -36.61509,0.404529 19.67973,-20.335717 56.29481,-20.740246 -23.14541,-28.37461 28.16921,2.707117 51.31462,31.081729 7.75324,-35.787088 15.44671,23.711439 7.69347,59.49852 32.81353,-16.251161 -8.90749,26.86056 z"
       inkscape:transform-center-x="0.73695113"
       inkscape:transform-center-y="-0.98320029"
       style="stroke-width:0.26458332" />
    <path
       sodipodi:type="star"
       id="path10-9"
       sodipodi:sides="7"
       sodipodi:cx="272.52216"
       sodipodi:cy="44.671948"
       sodipodi:r1="7.9081445"
       sodipodi:r2="24.712952"
       sodipodi:arg1="-1.5059523"
       sodipodi:arg2="-1.0571533"
       inkscape:flatsided="false"
       inkscape:rounded="2.12"
       inkscape:randomized="0"
       d="m 273.03459,36.780423 c 37.90957,2.461662 -21.4569,-32.2986975 11.63036,-13.632475 33.08726,18.666222 -27.36507,-14.1693577 -5.65345,17.004354 21.71162,31.173712 11.87397,-36.9135938 17.9097,0.59327 6.03573,37.506862 -5.98379,-30.229327 -16.8194,6.181994 -10.83562,36.411321 36.26351,-13.731801 10.70268,14.37227 -25.56083,28.104071 19.9034,-23.525995 -15.32001,-9.295533 -35.22341,14.230463 33.34588,19.790318 -4.56368,17.328658 -37.90956,-2.46166 30.80293,0.89289 -2.28433,-17.773334 -33.08726,-18.666224 5.31813,38.409924 -16.3935,7.236213 -21.71162,-31.17371 18.50723,24.639411 12.4715,-12.867452 -6.03573,-37.5068638 -26.71429,28.106073 -15.87868,-8.305249 10.83561,-36.4113204 -7.7248,29.831954 17.83603,1.727884 25.56083,-28.10407 -38.6303,-3.362223 -3.40689,-17.592688 35.22341,-14.2304641 -28.13989,12.560426 9.76967,15.022088 z"
       inkscape:transform-center-x="-0.49484862"
       inkscape:transform-center-y="-1.8842883"
       style="stroke-width:0.11209551" />
    <path
       sodipodi:type="star"
       id="path10-7-1"
       sodipodi:sides="7"
       sodipodi:cx="-60.852837"
       sodipodi:cy="161.08862"
       sodipodi:r1="7.9081445"
       sodipodi:r2="24.712952"
       sodipodi:arg1="-1.5059523"
       sodipodi:arg2="-1.0571533"
       inkscape:flatsided="false"
       inkscape:rounded="2.12"
       inkscape:randomized="0"
       d="m -60.3404,153.1971 c 37.909565,2.46166 -21.456906,-32.2987 11.630357,-13.63248 33.087262,18.66623 -27.365074,-14.16935 -5.653452,17.00436 21.711622,31.17371 11.873976,-36.9136 17.909707,0.59327 6.03573,37.50686 -5.983795,-30.22933 -16.819409,6.18199 -10.835615,36.41132 36.263513,-13.7318 10.702682,14.37227 -25.560829,28.10407 19.903405,-23.52599 -15.320007,-9.29553 -35.223412,14.23046 33.345884,19.79032 -4.56368,17.32866 -37.909568,-2.46166 30.802933,0.89289 -2.284328,-17.77334 -33.087263,-18.66622 5.318125,38.40993 -16.393499,7.23622 -21.711621,-31.17371 18.507226,24.63941 12.471497,-12.86746 -6.035729,-37.50686 -26.714291,28.10608 -15.878678,-8.30524 10.835612,-36.41133 -7.724801,29.83195 17.83603,1.72788 25.560832,-28.10407 -38.6303,-3.36222 -3.406889,-17.59269 35.223411,-14.23046 -28.139895,12.56043 9.769669,15.02209 z"
       inkscape:transform-center-x="-0.49484862"
       inkscape:transform-center-y="-1.8842883"
       style="fill:#0b1728;stroke-width:0.11209551"
       inkscape:export-filename="/home/cwc/html/img/poly-background.png"
       inkscape:export-xdpi="96"
       inkscape:export-ydpi="96" />
    <flowRoot
       xml:space="preserve"
       id="flowRoot156"
       style="font-style:normal;font-weight:normal;font-size:40px;line-height:1.25;font-family:sans-serif;letter-spacing:0px;word-spacing:0px;fill:#000000;fill-opacity:1;stroke:none"
       transform="matrix(0.26458333,0,0,0.26458333,21.922619,24.946429)"><flowRegion
         id="flowRegion158"><rect
           id="rect160"
           width="522.85712"
           height="351.42856"
           x="-582.85712"
           y="-46.051743" /></flowRegion><flowPara
         id="flowPara162"
         style="font-size:192px">svg</flowPara></flowRoot>    <flowRoot
       xml:space="preserve"
       id="flowRoot156-7"
       style="font-style:normal;font-weight:normal;font-size:40px;line-height:1.25;font-family:sans-serif;letter-spacing:0px;word-spacing:0px;fill:#000000;fill-opacity:1;stroke:none"
       transform="matrix(0.26458333,0,0,0.26458333,-72.797523,-78.251968)"><flowRegion
         id="flowRegion158-0"><rect
           id="rect160-9"
           width="522.85712"
           height="351.42856"
           x="-582.85712"
           y="-46.051743" /></flowRegion><flowPara
         id="flowPara162-3"
         style="font-size:192px">png</flowPara></flowRoot>    <g
       aria-label="CWC"
       transform="matrix(0.21211173,0.15815483,-0.22661129,0.30392314,270.41846,7.6682287)"
       style="font-style:normal;font-weight:normal;font-size:40px;line-height:1.25;font-family:sans-serif;letter-spacing:0px;word-spacing:0px;fill:#000000;fill-opacity:1;stroke:none"
       id="flowRoot203">
      <g
         id="g247"
         transform="translate(81.313478,-42.313722)"
         style="fill:#0b1728;fill-opacity:1;opacity:0.26"
         inkscape:export-filename="/home/cwc/html/img/cwc.png"
         inkscape:export-xdpi="96"
         inkscape:export-ydpi="96">
        <path
           sodipodi:nodetypes="ccsccccc"
           inkscape:connector-curvature="0"
           id="path219"
           d="m -527.77148,1231.7793 c 5.82133,39.9718 -32.28133,-0.9766 -53.95199,17.4549 -20.44261,4.5795 -19.61399,13.8483 -23.42169,33.4995 -5.63757,29.095 -2.53715,44.7577 27.58829,51.3797 15.49508,13.0608 62.00649,-15.7623 43.72878,19.6419 -35.93512,24.318 -96.40455,5.4233 -104.60434,-39.8857 -12.12232,-40.8047 12.43651,-94.4581 59.15094,-95.3489 18.00198,-1.512 36.50045,3.1785 51.51001,13.2586 z"
           style="font-size:192px;fill:#0b1728;fill-opacity:1" />
        <path
           sodipodi:nodetypes="cccccccccccccc"
           inkscape:connector-curvature="0"
           id="path221"
           d="m -510.80273,1220.998 c 38.31514,-6.2355 33.0955,51.4654 47.90482,74.0115 5.17225,19.4005 0.62708,60.8609 5.7782,23.6553 l 24.22323,-97.6668 c 41.42896,-6.1829 26.35742,57.9612 41.95733,83.0994 4.79001,24.3902 9.57889,45.7648 14.34744,12.6905 7.91925,-31.9299 15.83849,-63.8599 23.75773,-95.7899 37.40042,-5.5752 13.47061,38.3617 14.82849,57.8222 -6.72913,26.7909 9.44877,61.7786 -34.76437,81.74 -44.46241,8.6746 -39.0843,-72.5784 -54.87514,-98.557 -4.82715,-23.9846 4.89103,-34.4977 0,0 -8.09425,32.9879 -16.18849,65.9757 -24.28273,98.9636 -34.88606,10.7038 -28.17202,-32.6449 -37.30334,-53.8552 -7.19056,-28.7045 -14.38114,-57.4091 -21.57166,-86.1136 z"
           style="font-size:192px;fill:#0b1728;fill-opacity:1" />
        <path
           sodipodi:nodetypes="ccsccccc"
           inkscape:connector-curvature="0"
           id="path223"
           d="m -203.77148,1231.7793 c 5.82133,39.9718 -31.13607,-1.5726 -52.80673,16.8589 -25.76172,5.7711 -31.30027,18.0701 -30.6975,43.558 0.58372,24.6826 9.17901,35.0637 34.01017,40.522 15.49508,13.0608 61.71516,-14.3671 43.43745,21.0371 -35.93512,24.318 -96.40455,5.4233 -104.60434,-39.8857 -12.12232,-40.8047 12.43651,-94.4581 59.15094,-95.3489 18.00198,-1.512 36.50045,3.1785 51.51001,13.2586 z"
           style="font-size:192px;fill:#0b1728;fill-opacity:1" />
      </g>
    </g>
    <flowRoot
       xml:space="preserve"
       id="flowRoot211"
       style="font-style:normal;font-weight:normal;font-size:40px;line-height:1.25;font-family:sans-serif;letter-spacing:0px;word-spacing:0px;fill:#000000;fill-opacity:1;stroke:none"
       transform="matrix(3.0473826,0,0,5.8382764,2313.9013,-10201.206)"><flowRegion
         id="flowRegion213"><rect
           id="rect215"
           width="474.28571"
           height="277.14285"
           x="-785.71429"
           y="1822.5197" /></flowRegion><flowPara
         id="flowPara217">EH</flowPara></flowRoot>  </g>
</svg>
